<svg version="1.1" viewBox="0.0 0.0 512.0 512.0" fill="none" stroke="none" stroke-linecap="square" stroke-miterlimit="10" xmlns:xlink="http://www.w3.org/1999/xlink" xmlns="http://www.w3.org/2000/svg"><clipPath id="p.0"><path d="m0 0l512.0 0l0 512.0l-512.0 0l0 -512.0z" clip-rule="nonzero"/></clipPath><g clip-path="url(#p.0)"><path fill="#000000" fill-opacity="0.0" d="m0 0l512.0 0l0 512.0l-512.0 0z" fill-rule="evenodd"/><path fill="#ff9900" d="m2.9422572 84.36914l0 0c0 -46.587093 37.7663 -84.35339 84.353386 -84.35339l337.40344 0l0 0c22.371918 0 43.827545 8.887207 59.64685 24.706535c15.819336 15.81933 24.706543 37.27495 24.706543 59.64686l0 343.2932c0 46.587097 -37.766296 84.35339 -84.35339 84.35339l-337.40344 0l0 0c-46.58709 0 -84.353386 -37.766296 -84.353386 -84.35339z" fill-rule="evenodd"/><path stroke="#ff9900" stroke-width="1.0" stroke-linejoin="round" stroke-linecap="butt" d="m2.9422572 84.36914l0 0c0 -46.587093 37.7663 -84.35339 84.353386 -84.35339l337.40344 0l0 0c22.371918 0 43.827545 8.887207 59.64685 24.706535c15.819336 15.81933 24.706543 37.27495 24.706543 59.64686l0 343.2932c0 46.587097 -37.766296 84.35339 -84.35339 84.35339l-337.40344 0l0 0c-46.58709 0 -84.353386 -37.766296 -84.353386 -84.35339z" fill-rule="evenodd"/><path fill="#ff9900" d="m64.01247 63.992783l384.0 0l0 384.0l-384.0 0z" fill-rule="evenodd"/><path stroke="#ff9900" stroke-width="1.0" stroke-linejoin="round" stroke-linecap="butt" d="m64.01247 63.992783l384.0 0l0 384.0l-384.0 0z" fill-rule="evenodd"/><path fill="#000000" fill-opacity="0.0" d="m150.47229 107.35428l0 0c81.47722 -57.855087 194.77386 -38.20497 253.05511 43.88977l0 0c27.98764 39.42328 39.28595 88.26863 31.409424 135.79065c-7.876526 47.522003 -34.282684 89.82791 -73.409424 117.61093l0 0c-81.4772 57.855072 -194.77385 38.204956 -253.05511 -43.88977l0 0c-58.281258 -82.09476 -39.47722 -195.5465 42.0 -253.40158z" fill-rule="evenodd"/><path stroke="#ffffff" stroke-width="24.0" stroke-linejoin="round" stroke-linecap="butt" d="m150.47229 107.35428l0 0c81.47722 -57.855087 194.77386 -38.20497 253.05511 43.88977l0 0c27.98764 39.42328 39.28595 88.26863 31.409424 135.79065c-7.876526 47.522003 -34.282684 89.82791 -73.409424 117.61093l0 0c-81.4772 57.855072 -194.77385 38.204956 -253.05511 -43.88977l0 0c-58.281258 -82.09476 -39.47722 -195.5465 42.0 -253.40158z" fill-rule="evenodd"/><path fill="#ffffff" d="m182.30185 120.74016l226.92914 135.27559l-226.92914 135.2756z" fill-rule="evenodd"/><path stroke="#ffffff" stroke-width="24.0" stroke-linejoin="round" stroke-linecap="butt" d="m182.30185 120.74016l226.92914 135.27559l-226.92914 135.2756z" fill-rule="evenodd"/><path fill="#000000" fill-opacity="0.0" d="m253.20013 117.53674l170.4252 0l0 236.22049l-170.4252 0z" fill-rule="evenodd"/><path fill="#ff9900" d="m287.07513 352.18613q-4.1875 0 -6.953125 -2.765625q-2.765625 -2.765625 -2.765625 -6.953125l0 -86.937515q0.1875 -15.0625 7.046875 -27.078125q6.875 -12.015625 18.6875 -18.96875q11.828125 -6.953125 26.703125 -6.953125q15.0625 0 26.875 6.953125q11.828125 6.953125 18.78125 18.96875q6.953125 12.015625 6.953125 27.078125q0 15.062515 -6.390625 26.98439q-6.375 11.90625 -17.4375 18.875q-11.046875 6.953125 -24.96875 6.953125q-11.25 0 -20.6875 -4.671875q-9.4375 -4.671875 -16.109375 -12.6875l0 51.484375q0 4.1875 -2.671875 6.953125q-2.671875 2.765625 -7.0625 2.765625zm42.71875 -61.0q9.71875 0 17.34375 -4.671875q7.625 -4.671875 12.109375 -12.765625q4.484375 -8.109375 4.484375 -18.218765q0 -10.296875 -4.484375 -18.390625q-4.484375 -8.109375 -12.109375 -12.78125q-7.625 -4.671875 -17.34375 -4.671875q-9.53125 0 -17.265625 4.671875q-7.71875 4.671875 -12.109375 12.78125q-4.375 8.09375 -4.375 18.390625q0 10.10939 4.375 18.218765q4.390625 8.09375 12.109375 12.765625q7.734375 4.671875 17.265625 4.671875z" fill-rule="nonzero"/><path fill="#000000" fill-opacity="0.0" d="m142.35892 113.2231l120.188995 0l0 240.53545l-120.188995 0z" fill-rule="evenodd"/><path fill="#ff9900" d="m209.98392 304.02872q-13.921875 0 -24.984375 -6.953125q-11.046875 -6.96875 -17.4375 -18.875q-6.375 -11.921875 -6.375 -26.984375q0 -15.0625 6.953125 -27.078125q6.953125 -12.015625 18.875 -18.96875q11.921875 -6.953125 26.78125 -6.953125q14.875 0 26.6875 6.953125q11.828125 6.953125 18.78125 18.96875q6.96875 12.015625 6.96875 27.078125l-7.4375 0q0 15.0625 -6.390625 26.984375q-6.390625 11.90625 -17.453125 18.875q-11.046875 6.953125 -24.96875 6.953125zm3.8125 -17.15625q9.734375 0 17.359375 -4.671875q7.625 -4.671875 12.0 -12.765625q4.390625 -8.109375 4.390625 -18.21875q0 -10.296875 -4.390625 -18.390625q-4.375 -8.109375 -12.0 -12.78125q-7.625 -4.671875 -17.359375 -4.671875q-9.53125 0 -17.25 4.671875q-7.71875 4.671875 -12.203125 12.78125q-4.484375 8.09375 -4.484375 18.390625q0 10.109375 4.484375 18.21875q4.484375 8.09375 12.203125 12.765625q7.71875 4.671875 17.25 4.671875zm42.71875 16.578125q-4.203125 0 -6.96875 -2.765625q-2.765625 -2.765625 -2.765625 -6.953125l0 -29.171875l3.625 -20.203125l15.828125 6.859375l0 42.515625q0 4.1875 -2.765625 6.953125q-2.765625 2.765625 -6.953125 2.765625z" fill-rule="nonzero"/></g></svg>