<svg id="Layer_1" data-name="Layer 1" xmlns="http://www.w3.org/2000/svg" viewBox="0 0 300 300"><g id="Layer_2" data-name="Layer 2"><g id="Layer_1-2" data-name="Layer 1-2"><path d="M223.2,71.89A21.12,21.12,0,0,1,233,75.31a28.79,28.79,0,0,1,3.12,2.26c.75.62,1.16,1,1.16,1a14.39,14.39,0,0,1-3.33,1.83,17.57,17.57,0,0,1-8.39,1.26A30.29,30.29,0,0,1,216.46,79c-.61-.27-1.17-.54-1.67-.8s-.94-.45-1.3-.64c-.71-.4-1.12-.65-1.12-.65a14.35,14.35,0,0,1,6.14-4.31A12.69,12.69,0,0,1,223.2,71.89Z"/><path d="M244.27,92a23.56,23.56,0,0,1,9.42,6.54c.58.63,1.1,1.25,1.55,1.81s.82,1.08,1.12,1.51c.62.88.95,1.41.95,1.41a16.42,16.42,0,0,1-4.09,1,20.32,20.32,0,0,1-4.27,0,19.14,19.14,0,0,1-5-1.16A33.61,33.61,0,0,1,235,97.49c-1.14-1-2.12-1.86-2.78-2.51l-1-1.06s.35-.25,1-.62a16,16,0,0,1,2.65-1.23,15.49,15.49,0,0,1,4.16-.81A14.45,14.45,0,0,1,244.27,92Z"/><path d="M259.46,116.79a23.45,23.45,0,0,1,7.82,9.7,25.77,25.77,0,0,1,1,2.39c.25.74.46,1.42.63,2,.34,1.12.5,1.8.5,1.8-.43,0-.87,0-1.3,0a20.4,20.4,0,0,1-3.3-.42,22.61,22.61,0,0,1-4.42-1.36,20.38,20.38,0,0,1-4.82-2.75,36.32,36.32,0,0,1-7.52-8.13c-.44-.64-.87-1.25-1.24-1.81s-.66-1.07-.92-1.49c-.53-.83-.81-1.36-.81-1.36a16.22,16.22,0,0,1,4.45-1,15.86,15.86,0,0,1,4.61.26A14.92,14.92,0,0,1,259.46,116.79Z"/><path d="M266.31,144.56c2.84,3.64,4.23,8.71,4.55,12.76.05.52.1,1,.12,1.47s0,.94,0,1.36v2.26a12.14,12.14,0,0,1-.12,1.47,1.71,1.71,0,0,1-.07.54,12.17,12.17,0,0,1-1.32-.47,23.89,23.89,0,0,1-3.19-1.62,25,25,0,0,1-8-7.58,40.94,40.94,0,0,1-4.82-10.86c-.21-.81-.48-1.55-.63-2.22s-.32-1.27-.43-1.76c-.26-1-.37-1.58-.37-1.58a10.75,10.75,0,0,1,1.39,0,19.94,19.94,0,0,1,3.53.45,16.82,16.82,0,0,1,4.65,1.78,16.11,16.11,0,0,1,2.43,1.67A16.74,16.74,0,0,1,266.31,144.56Z"/><path d="M264,173.07a16.29,16.29,0,0,1,.56,1.8c.14.62.26,1.24.35,1.87a20.13,20.13,0,0,1,.27,3.8c0,.63,0,1.26-.06,1.88l-.06.93-.12.92c-.17,1.19-.38,2.35-.61,3.43a39.81,39.81,0,0,1-1.68,5.23c-.52,1.27-.88,2-.88,2a12.08,12.08,0,0,1-1.19-1,23.81,23.81,0,0,1-2.71-2.79,31.25,31.25,0,0,1-3.1-4.47,28.82,28.82,0,0,1-2.47-6A45.27,45.27,0,0,1,251,168.07a21.32,21.32,0,0,1,.09-2.47,16.55,16.55,0,0,0,.13-2c.08-1.09.17-1.74.17-1.74s.55.13,1.43.44a22.82,22.82,0,0,1,3.46,1.64,20,20,0,0,1,2.11,1.43,18.7,18.7,0,0,1,2.08,2,18.25,18.25,0,0,1,1.94,2.53A18.78,18.78,0,0,1,264,173.07Z"/><path d="M252.86,199.38a22.21,22.21,0,0,1-1.37,8A24.47,24.47,0,0,1,249.9,211c-.29.57-.58,1.16-.9,1.7s-.66,1-1,1.54a37.93,37.93,0,0,1-3.64,4.64c-.48.56-.94.94-1.23,1.23a5.26,5.26,0,0,1-.46.42s-.33-.5-.8-1.4a27.93,27.93,0,0,1-1.63-3.82,32.39,32.39,0,0,1-1.44-5.66c-.15-1-.3-2.15-.37-3.3a29.53,29.53,0,0,1,0-3.52,50.51,50.51,0,0,1,2.92-12.9c.08-.22.17-.43.24-.65l.21-.62c.14-.4.28-.79.42-1.15.28-.73.57-1.34.76-1.89.42-1.06.73-1.67.73-1.67a14.7,14.7,0,0,1,1.31.92,22,22,0,0,1,3,2.79,18.71,18.71,0,0,1,3.18,4.78,16.62,16.62,0,0,1,1.63,6.93Z"/><path d="M233.85,220.14A24,24,0,0,1,232,224a33.26,33.26,0,0,1-2.55,3.47c-1,1-2,2.06-3.06,3a32.3,32.3,0,0,1-3.21,2.38,35.84,35.84,0,0,1-5.59,2.93c-1.46.62-2.35.92-2.35.92s-.11-.63-.18-1.74a36.85,36.85,0,0,1,.09-4.46c.08-.92.19-1.89.36-2.92.08-.5.18-1,.29-1.54s.23-1.1.36-1.65a30,30,0,0,1,1-3.35,35.08,35.08,0,0,1,1.38-3.43,56,56,0,0,1,7.37-11.21l.87-1c.27-.34.53-.65.78-.94.5-.61,1-1.08,1.34-1.53a15.74,15.74,0,0,1,1.24-1.34,15.15,15.15,0,0,1,1,1.38,24.17,24.17,0,0,1,2.09,3.84,19.69,19.69,0,0,1,1.53,5.89A17.58,17.58,0,0,1,233.85,220.14Z"/><path d="M227.54,65.73a38.23,38.23,0,0,0,6,8.9c1,1.2,2,2.16,2.61,2.87a8.31,8.31,0,0,0,1.09,1.08,12,12,0,0,0,1.6-3.51,13.87,13.87,0,0,0-.37-8.95c-1.35-3.68-4.29-7-6.92-9.39-.66-.58-1.3-1.11-1.87-1.58s-1.14-.83-1.59-1.15l-1.48-1a13.73,13.73,0,0,0-.72,3.81,17.84,17.84,0,0,0,.2,4A19.2,19.2,0,0,0,227.54,65.73Z"/><path d="M250.71,86.71A42,42,0,0,0,254.52,98c.37.78.72,1.5,1.06,2.13s.63,1.23.88,1.69c.51.93.85,1.46.85,1.46a13.39,13.39,0,0,0,2.71-3.2,16.2,16.2,0,0,0,1.76-4,15.83,15.83,0,0,0,.45-5.65c-.38-4.31-2.5-8.73-4.58-12a37.51,37.51,0,0,0-2.83-3.89c-.74-.94-1.25-1.46-1.25-1.46a11.43,11.43,0,0,0-.65,1,17.75,17.75,0,0,0-1.29,2.8,18.21,18.21,0,0,0-1,4.32A20.06,20.06,0,0,0,250.71,86.71Z"/><path d="M267.75,113.07a56.24,56.24,0,0,0,.53,13.09c.13.94.29,1.81.41,2.59s.22,1.48.32,2.05c.21,1.15.38,1.83.38,1.83a12.3,12.3,0,0,0,1.16-.55,15.17,15.17,0,0,0,2.76-1.86,15.92,15.92,0,0,0,3.22-3.63,17.23,17.23,0,0,0,2.31-5.91c.93-4.8,0-10.33-1.38-14.47-.31-1-.68-2-1-2.84s-.65-1.6-.93-2.2c-.58-1.22-1-1.93-1-1.93a16,16,0,0,0-3.07,3.55,22.09,22.09,0,0,0-2.26,4.34A23.88,23.88,0,0,0,267.75,113.07Z"/><path d="M276.18,143.72c-2.14,4.51-3.25,9.63-4.14,13.66-.1.51-.19,1-.28,1.47s-.19.91-.27,1.34c-.16.84-.29,1.6-.38,2.22l-.32,2a10.87,10.87,0,0,0,1.4-.12,18,18,0,0,0,3.54-.9,17.64,17.64,0,0,0,9.09-7.8c2.64-4.52,3.73-10.66,3.78-15.52,0-1.23,0-2.36-.08-3.39s-.13-1.94-.22-2.69c-.2-1.51-.38-2.4-.38-2.4a12.32,12.32,0,0,0-1.28.59,21.84,21.84,0,0,0-3.06,2.06,27,27,0,0,0-3.81,3.83,22.47,22.47,0,0,0-1.84,2.59A27.18,27.18,0,0,0,276.18,143.72Z"/><path d="M274.37,175.56c-.47.49-.9,1-1.34,1.52s-.89,1-1.3,1.57c-.83,1.07-1.59,2.18-2.36,3.26-.38.54-.73,1.09-1.08,1.63l-.5.82-.51.79c-.67,1-1.28,2.09-1.82,3-1.18,1.91-2,3.63-2.73,4.82a11.85,11.85,0,0,0-1,1.94,10.77,10.77,0,0,0,1.46.37,18.31,18.31,0,0,0,3.91.3,17.86,17.86,0,0,0,5.61-1,19.09,19.09,0,0,0,6.44-3.84c4.34-3.81,7.51-9.78,9.2-14.79.44-1.26.75-2.45,1-3.53a25.22,25.22,0,0,0,.67-2.85c.3-1.61.43-2.6.43-2.6a11.09,11.09,0,0,0-1.52.2,22.33,22.33,0,0,0-3.84,1.07c-.77.3-1.59.67-2.45,1.1a27.71,27.71,0,0,0-2.71,1.53,24.25,24.25,0,0,0-2.77,2.06A27.22,27.22,0,0,0,274.37,175.56Z"/><path d="M262.63,205.45a59.5,59.5,0,0,0-7.32,4.75c-1.12.87-2.25,1.71-3.3,2.55-.51.43-1,.84-1.52,1.25L249,215.15c-1.82,1.57-3.46,2.86-4.54,3.86-.55.5-1,.85-1.32,1.12l-.48.41a15.22,15.22,0,0,0,1.33.94,19.55,19.55,0,0,0,3.83,1.84,19.2,19.2,0,0,0,6.06,1,18,18,0,0,0,3.81-.34,22.14,22.14,0,0,0,4.23-1.26,31.61,31.61,0,0,0,4.32-2.25,46.85,46.85,0,0,0,4-3c1.24-1.1,2.41-2.27,3.52-3.43a44,44,0,0,0,2.95-3.55l.66-.85.59-.85c.38-.56.73-1.1,1.07-1.61a29.74,29.74,0,0,0,1.65-2.77c.87-1.58,1.33-2.56,1.33-2.56a9.82,9.82,0,0,0-1.62-.29,22.91,22.91,0,0,0-4.3-.13c-.89.06-1.85.16-2.89.33a30.35,30.35,0,0,0-3.28.7,33,33,0,0,0-7.32,3Z"/><path d="M207.79,64.44a51.67,51.67,0,0,0,11.39,3c.79.13,1.55.21,2.2.3s1.25.15,1.73.19c1,.09,1.54.1,1.54.1s-.23-.51-.73-1.37a17.72,17.72,0,0,0-.92-1.54c-.37-.54-.85-1.2-1.38-1.89a25.93,25.93,0,0,0-10.26-7.86c-.57-.23-1.16-.45-1.74-.64s-1.17-.34-1.76-.47L206.15,54c-.57-.11-1.15-.14-1.69-.19s-1.08-.1-1.61-.1h-1.54a7.94,7.94,0,0,0-1.43.08c-.43.08-.91.13-1.33.19-.84.15-1.6.3-2.25.47s-1.24.39-1.7.54c-.92.33-1.42.56-1.42.56s.45.38,1.23,1c.39.29.86.61,1.41,1s1.14.82,1.8,1.25A57.57,57.57,0,0,0,207.79,64.44Z"/><path d="M241.27,229.93a41.16,41.16,0,0,0-4.67.84c-1.56.29-3.09.66-4.56,1.08s-3,.76-4.32,1.18-2.74.73-4,1.12c-2.5.67-4.59,1.38-6.13,1.77a18.19,18.19,0,0,0-2.41.76,11.66,11.66,0,0,0,.88,1.49,19,19,0,0,0,2.91,3.42,19.41,19.41,0,0,0,2.41,1.93c.45.32,1,.63,1.47.93a13.51,13.51,0,0,0,1.66.81,23.26,23.26,0,0,0,4,1.27,22,22,0,0,0,4.79.47,26.63,26.63,0,0,0,5.34-.52A33.11,33.11,0,0,0,244,245a37.51,37.51,0,0,0,5-2.16,40.39,40.39,0,0,0,4.48-2.55c.69-.42,1.36-.85,2-1.29s1.18-.87,1.72-1.29c1.09-.84,2.06-1.59,2.81-2.26,1.48-1.36,2.33-2.22,2.33-2.22a11.56,11.56,0,0,0-1.54-.85,24.76,24.76,0,0,0-4.33-1.61,34.21,34.21,0,0,0-6.67-1.14A41.85,41.85,0,0,0,241.27,229.93Z"/><path d="M169.68,118.07a6.41,6.41,0,0,1,3,1,9.07,9.07,0,0,1,.94.69,3.27,3.27,0,0,1,.35.3,4.27,4.27,0,0,1-1,.56,5.38,5.38,0,0,1-2.54.38,9,9,0,0,1-2.74-.82l-.51-.24-.39-.19-.34-.2a4.12,4.12,0,0,1,1.86-1.3A3.55,3.55,0,0,1,169.68,118.07Z"/><path d="M176.06,124.07a7.14,7.14,0,0,1,2.85,2l.47.54.34.46.28.43a5.34,5.34,0,0,1-1.24.3,7,7,0,0,1-1.29,0,5.69,5.69,0,0,1-1.52-.35,9.85,9.85,0,0,1-2.7-1.7c-.35-.3-.64-.56-.84-.76l-.32-.32.3-.18a4.12,4.12,0,0,1,.83-.37,4.94,4.94,0,0,1,1.26-.25A4.46,4.46,0,0,1,176.06,124.07Z"/><path d="M180.64,131.6a7.21,7.21,0,0,1,2.37,2.93c.11.26.22.51.3.73s.14.43.2.6c.1.33.14.54.14.54h-.39a5.59,5.59,0,0,1-1-.13,6.83,6.83,0,0,1-1.33-.41,6,6,0,0,1-1.47-.79,11.06,11.06,0,0,1-2.27-2.46c-.14-.19-.27-.38-.38-.55l-.28-.45c-.16-.25-.24-.41-.24-.41a5,5,0,0,1,4.34.44Z"/><path d="M182.73,140a7.66,7.66,0,0,1,1.37,3.86V146l-.4-.14a7.18,7.18,0,0,1-1-.5,7.56,7.56,0,0,1-2.41-2.3,12.31,12.31,0,0,1-1.44-3.28c-.06-.25-.14-.47-.19-.67s-.1-.39-.13-.54-.11-.47-.11-.47a2.94,2.94,0,0,1,.42,0,5.4,5.4,0,0,1,1.06.14,5.12,5.12,0,0,1,1.41.53,5.4,5.4,0,0,1,.74.51A5.71,5.71,0,0,1,182.73,140Z"/><path d="M182,148.64a5.6,5.6,0,0,1,.17.54,5,5,0,0,1,.1.56,7.33,7.33,0,0,1,.09,1.15V152c-.05.36-.11.71-.18,1a10.78,10.78,0,0,1-.51,1.58c-.16.38-.27.61-.27.61l-.35-.29a7.22,7.22,0,0,1-.82-.84,9.69,9.69,0,0,1-.94-1.36,8.43,8.43,0,0,1-.75-1.81,14.08,14.08,0,0,1-.37-3.83v-1.86a1.07,1.07,0,0,1,.43.13,6.73,6.73,0,0,1,1,.5,5.5,5.5,0,0,1,.64.43,7,7,0,0,1,.63.59,6.1,6.1,0,0,1,.58.76A5.58,5.58,0,0,1,182,148.64Z"/><path d="M178.66,156.58a6.83,6.83,0,0,1-.42,2.41,7.75,7.75,0,0,1-.48,1.11l-.27.52-.3.46a10,10,0,0,1-1.1,1.4c-.12.13-.24.26-.37.38l-.14.12s-.1-.15-.24-.42a7,7,0,0,1-.5-1.16,10.19,10.19,0,0,1-.43-1.71c0-.31-.09-.65-.11-1a6.37,6.37,0,0,1,0-1.07,14.91,14.91,0,0,1,.88-3.9c0-.07,0-.13.07-.2s.05-.12.07-.19l.12-.34c.09-.22.18-.41.23-.58a4.13,4.13,0,0,1,.22-.5,3.6,3.6,0,0,1,.4.28,6.57,6.57,0,0,1,.91.84,4.56,4.56,0,0,1,.51.65,5.67,5.67,0,0,1,.45.8,5.16,5.16,0,0,1,.35,1A6.77,6.77,0,0,1,178.66,156.58Z"/><path d="M172.91,162.86a7.38,7.38,0,0,1-.56,1.17,10.2,10.2,0,0,1-.78,1.05q-.45.48-.93.9c-.33.26-.66.5-1,.72a11.83,11.83,0,0,1-1.69.89l-.71.28a4.78,4.78,0,0,1-.06-.53,10.14,10.14,0,0,1,0-1.35,5.72,5.72,0,0,1,.11-.88,3.55,3.55,0,0,1,.09-.47,2.37,2.37,0,0,1,.11-.5,5.76,5.76,0,0,1,.3-1,7.47,7.47,0,0,1,.41-1,17.73,17.73,0,0,1,2.23-3.39l.27-.31a3.11,3.11,0,0,1,.23-.28c.15-.19.29-.33.41-.47s.24-.27.37-.4.12.15.31.42a8.68,8.68,0,0,1,.63,1.16,5.77,5.77,0,0,1,.46,1.78A5.33,5.33,0,0,1,172.91,162.86Z"/><path d="M171,116.16a11.69,11.69,0,0,0,1.82,2.69c.3.36.59.65.79.86l.32.33a3.42,3.42,0,0,0,.48-1,4.13,4.13,0,0,0-.11-2.71,7.69,7.69,0,0,0-2.09-2.83q-.3-.27-.57-.48l-.48-.35c-.27-.19-.44-.29-.44-.29a4.11,4.11,0,0,0-.22,1.15,4.92,4.92,0,0,0,.06,1.21A5.44,5.44,0,0,0,171,116.16Z"/><path d="M178,122.5a12.48,12.48,0,0,0,1.15,3.41c.11.24.22.45.32.64l.26.52.26.44a3.6,3.6,0,0,0,.82-1,4.72,4.72,0,0,0,.67-2.93A8.66,8.66,0,0,0,180.1,120a14.11,14.11,0,0,0-.85-1.18c-.23-.28-.38-.44-.38-.44l-.2.3a6.53,6.53,0,0,0-.39.85,5.8,5.8,0,0,0-.3,1.31A6.12,6.12,0,0,0,178,122.5Z"/><path d="M183.16,130.48a17.28,17.28,0,0,0,.16,4,5.72,5.72,0,0,0,.12.79c0,.24.07.44.1.62.06.35.11.55.11.55l.36-.16a5.82,5.82,0,0,0,.83-.57,4.56,4.56,0,0,0,1-1.1,5.47,5.47,0,0,0,.7-1.78,9.45,9.45,0,0,0-.42-4.38c-.1-.31-.21-.6-.31-.86s-.2-.48-.28-.67c-.18-.36-.3-.58-.3-.58a4.7,4.7,0,0,0-.92,1.07,7.22,7.22,0,0,0-1.15,3.07Z"/><path d="M185.71,139.75a19.12,19.12,0,0,0-1.25,4.13l-.09.44a2.7,2.7,0,0,1-.08.41c0,.13-.09.48-.11.67-.06.38-.1.61-.1.61a2.94,2.94,0,0,0,.42,0,4.94,4.94,0,0,0,1.07-.27,5.26,5.26,0,0,0,2.75-2.36,10,10,0,0,0,1.15-4.7v-1a3.51,3.51,0,0,0-.06-.82c-.07-.45-.12-.72-.12-.72l-.39.18a7.06,7.06,0,0,0-.92.62,7.89,7.89,0,0,0-1.18,1.13,7.48,7.48,0,0,0-.56.79A6.14,6.14,0,0,0,185.71,139.75Z"/><path d="M185.16,149.38c-.14.15-.27.3-.4.46l-.4.47c-.25.33-.48.66-.71,1l-.33.49-.15.25-.15.24c-.21.32-.39.63-.55.92-.36.58-.62,1.1-.83,1.46a6.27,6.27,0,0,0-.31.59l.45.11a5.81,5.81,0,0,0,1.18.09,5.49,5.49,0,0,0,1.7-.31,5.74,5.74,0,0,0,2-1.16,10.8,10.8,0,0,0,2.78-4.48c.13-.38.22-.74.31-1.07a6.34,6.34,0,0,0,.21-.86c.09-.49.13-.78.13-.78a3.62,3.62,0,0,0-.46.06,6.64,6.64,0,0,0-1.16.32q-.39.15-.75.33a8.13,8.13,0,0,0-.81.47,5.69,5.69,0,0,0-.84.62A9.61,9.61,0,0,0,185.16,149.38Z"/><path d="M181.61,158.42a19,19,0,0,0-2.21,1.44c-.34.26-.68.51-1,.77l-.46.38-.44.34c-.55.48-1,.87-1.38,1.17-.16.15-.31.26-.4.34l-.14.12c.13.1.26.2.4.29a6.47,6.47,0,0,0,1.16.55,5.47,5.47,0,0,0,1.83.32,6.3,6.3,0,0,0,1.15-.1,8.29,8.29,0,0,0,1.29-.38,12.34,12.34,0,0,0,1.3-.68c.42-.28.82-.59,1.21-.91s.73-.69,1.07-1a8.15,8.15,0,0,0,.89-1.07l.2-.26.18-.26.32-.48c.2-.32.38-.6.5-.84.26-.48.4-.78.4-.78a3.86,3.86,0,0,0-.49-.09,7.06,7.06,0,0,0-1.3,0,8.58,8.58,0,0,0-.87.1,8.45,8.45,0,0,0-1,.21,9.77,9.77,0,0,0-1.08.36A9.22,9.22,0,0,0,181.61,158.42Z"/><path d="M165,115.77a16.42,16.42,0,0,0,3.45.92l.66.09.53.06h.46s-.07-.16-.22-.42a4.34,4.34,0,0,0-.28-.46c-.12-.18-.25-.37-.41-.57a7.91,7.91,0,0,0-3.11-2.32l-.52-.2-.54-.14-.51-.11-.52-.05h-1.38l-.41.06-.68.14-.51.17c-.28.1-.43.17-.43.17l.37.28.43.3c.16.12.34.25.54.38A17.45,17.45,0,0,0,165,115.77Z"/><path d="M175.15,165.83a11.25,11.25,0,0,0-1.41.25c-.48.09-.94.2-1.38.32s-.9.23-1.31.36-.83.22-1.2.34c-.75.2-1.39.42-1.85.54a6.44,6.44,0,0,0-.73.23c.08.15.16.3.26.45a6.43,6.43,0,0,0,.88,1,5.89,5.89,0,0,0,.73.59l.45.28.5.24a8.4,8.4,0,0,0,1.2.39,7.72,7.72,0,0,0,1.44.14,8,8,0,0,0,1.62-.16,10.22,10.22,0,0,0,1.62-.44,10.74,10.74,0,0,0,1.52-.66,10.11,10.11,0,0,0,1.36-.77c.21-.12.41-.26.6-.39l.52-.39c.33-.25.62-.48.85-.68.45-.41.7-.67.7-.67a4.17,4.17,0,0,0-.46-.26,7.65,7.65,0,0,0-1.31-.49,10.33,10.33,0,0,0-2-.34A12.56,12.56,0,0,0,175.15,165.83Z"/><path d="M187.83,88.52a14.39,14.39,0,0,1,6.7,2.35,20.36,20.36,0,0,1,2.14,1.54c.51.43.79.69.79.69a10,10,0,0,1-2.28,1.26,12.16,12.16,0,0,1-5.75.86,21.07,21.07,0,0,1-6.21-1.84c-.41-.19-.8-.37-1.14-.55l-.89-.44-.77-.44a9.78,9.78,0,0,1,4.21-3A8.91,8.91,0,0,1,187.83,88.52Z"/><path d="M202.27,102.29a16.18,16.18,0,0,1,6.46,4.48c.39.44.74.86,1.06,1.24s.55.74.77,1c.41.6.64,1,.64,1a10.81,10.81,0,0,1-2.8.68,14.25,14.25,0,0,1-2.92,0,13.29,13.29,0,0,1-3.46-.8,22.67,22.67,0,0,1-6.11-3.82c-.79-.67-1.45-1.28-1.91-1.72s-.71-.73-.71-.73.24-.17.68-.42a10.8,10.8,0,0,1,1.87-.84,10.66,10.66,0,0,1,2.85-.55A9.66,9.66,0,0,1,202.27,102.29Z"/><path d="M212.65,119.28a16.1,16.1,0,0,1,5.36,6.64c.26.59.51,1.14.69,1.64s.32,1,.44,1.36c.23.76.34,1.23.34,1.23h-.89a15.52,15.52,0,0,1-2.26-.29,15.79,15.79,0,0,1-3-.93A14.4,14.4,0,0,1,210,127a24.74,24.74,0,0,1-5.15-5.56c-.31-.45-.6-.87-.85-1.25s-.46-.73-.63-1c-.37-.57-.56-.93-.56-.93a11.39,11.39,0,0,1,3-.66,11.11,11.11,0,0,1,3.15.18A10.52,10.52,0,0,1,212.65,119.28Z"/><path d="M217.37,138.31a16.86,16.86,0,0,1,3.09,8.76c0,.35.08.68.09,1s0,.65,0,.93v1.55a8.44,8.44,0,0,1-.09,1v.37a8.7,8.7,0,0,1-.9-.32,16.24,16.24,0,0,1-2.2-1.12,17.17,17.17,0,0,1-5.48-5.18,27.81,27.81,0,0,1-3.26-7.45c-.15-.55-.33-1.06-.44-1.51s-.22-.87-.29-1.21c-.18-.68-.26-1.08-.26-1.08h1a14.19,14.19,0,0,1,2.42.31,11.76,11.76,0,0,1,3.19,1.22,10.24,10.24,0,0,1,3.2,2.76Z"/><path d="M215.75,157.86a10.3,10.3,0,0,1,.38,1.23c.1.42.18.85.24,1.28a13.34,13.34,0,0,1,.19,2.6v1.93c0,.21-.06.42-.08.63-.12.82-.27,1.61-.43,2.35a28.1,28.1,0,0,1-1.14,3.58c-.36.87-.61,1.37-.61,1.37a8.53,8.53,0,0,1-.81-.65,16.78,16.78,0,0,1-1.86-1.91,21.49,21.49,0,0,1-2.12-3.07,19,19,0,0,1-1.69-4.1,30.89,30.89,0,0,1-.84-8.67,14.9,14.9,0,0,1,.06-1.69,12.14,12.14,0,0,0,.09-1.34,5,5,0,0,1,.12-1.19s.37.09,1,.3a13.91,13.91,0,0,1,2.37,1.13,13,13,0,0,1,2.87,2.33,13,13,0,0,1,1.32,1.73A12.17,12.17,0,0,1,215.75,157.86Z"/><path d="M208.16,175.86a15.32,15.32,0,0,1-.94,5.45,17.58,17.58,0,0,1-1.09,2.52c-.2.39-.4.79-.62,1.16s-.45.71-.67,1a25.53,25.53,0,0,1-2.5,3.18c-.33.39-.64.65-.83.85l-.32.29a9.72,9.72,0,0,1-.55-1,19.47,19.47,0,0,1-1.12-2.62,22.56,22.56,0,0,1-1-3.88c-.11-.7-.21-1.47-.26-2.26s0-1.57,0-2.41a34.87,34.87,0,0,1,2-8.84c.06-.15.12-.29.17-.44l.14-.43.29-.79c.19-.5.39-.92.52-1.29.29-.73.5-1.14.5-1.14a9,9,0,0,1,.9.62,16.27,16.27,0,0,1,2.06,1.92,13.51,13.51,0,0,1,1.16,1.46,13.86,13.86,0,0,1,1,1.81,12.24,12.24,0,0,1,.78,2.2A12.65,12.65,0,0,1,208.16,175.86Z"/><path d="M195.13,190.07a16.08,16.08,0,0,1-1.26,2.65,23.93,23.93,0,0,1-1.77,2.37c-.67.7-1.37,1.37-2.1,2s-1.48,1.14-2.2,1.63a24,24,0,0,1-3.83,2c-1,.42-1.61.63-1.61.63s-.07-.43-.12-1.19a22.33,22.33,0,0,1,.06-3.06,12.41,12.41,0,0,1,.25-2c.06-.35.12-.7.2-1.06s.15-.76.24-1.13a22.52,22.52,0,0,1,.68-2.3c.28-.76.57-1.58.94-2.35a38.35,38.35,0,0,1,5.06-7.68l.59-.7.53-.64c.34-.42.67-.74.92-1,.51-.59.85-.91.85-.91a9.07,9.07,0,0,1,.69.94,15.57,15.57,0,0,1,1.43,2.63,13.21,13.21,0,0,1,1,4A11.94,11.94,0,0,1,195.13,190.07Z"/><path d="M190.81,84.3a26.28,26.28,0,0,0,4.12,6.1c.69.82,1.34,1.48,1.79,2a5.61,5.61,0,0,0,.74.74,8.64,8.64,0,0,0,1.09-2.37,9.5,9.5,0,0,0-.25-6.14,17.41,17.41,0,0,0-4.74-6.43c-.45-.4-.89-.76-1.29-1.08s-.78-.57-1.09-.78c-.62-.43-1-.67-1-.67a9.27,9.27,0,0,0-.49,2.61,12.06,12.06,0,0,0,.14,2.75A12.85,12.85,0,0,0,190.81,84.3Z"/><path d="M206.68,98.68a28.77,28.77,0,0,0,2.61,7.71c.25.54.5,1,.73,1.46s.43.84.6,1.16c.35.64.58,1,.58,1a9.28,9.28,0,0,0,1.86-2.19,10.68,10.68,0,0,0,1.2-2.75,10.94,10.94,0,0,0,.32-3.86A19.44,19.44,0,0,0,211.46,93a27.3,27.3,0,0,0-2-2.67c-.51-.64-.86-1-.86-1a6.07,6.07,0,0,0-.44.68,11.16,11.16,0,0,0-.89,1.92,12.33,12.33,0,0,0-.69,3A14.08,14.08,0,0,0,206.68,98.68Z"/><path d="M218.36,116.75a38.75,38.75,0,0,0,.36,9c.09.65.19,1.24.28,1.78s.15,1,.22,1.4c.14.79.26,1.25.26,1.25s.3-.12.79-.37a11.27,11.27,0,0,0,4.1-3.77,12,12,0,0,0,1.58-4,21,21,0,0,0-.94-9.91c-.22-.72-.47-1.37-.7-2a15.26,15.26,0,0,0-.64-1.51c-.4-.83-.66-1.32-.66-1.32a11,11,0,0,0-2.11,2.41,15.5,15.5,0,0,0-1.55,3A16.58,16.58,0,0,0,218.36,116.75Z"/><path d="M224.13,137.73a44.18,44.18,0,0,0-2.84,9.34c-.06.35-.13.69-.19,1s-.13.63-.18.92c-.12.58-.2,1.1-.27,1.52l-.19,1.4a8.42,8.42,0,0,0,1-.08,13.43,13.43,0,0,0,2.42-.62,12.08,12.08,0,0,0,6.23-5.34,22.91,22.91,0,0,0,2.59-10.64c0-.84,0-1.62-.06-2.32s-.18-1.33-.18-1.84c-.14-1-.26-1.64-.26-1.64a8.59,8.59,0,0,0-.87.4,14.81,14.81,0,0,0-2.1,1.41,18.25,18.25,0,0,0-2.61,2.59,15.88,15.88,0,0,0-1.26,1.78A18,18,0,0,0,224.13,137.73Z"/><path d="M222.89,159.54c-.32.34-.61.69-.92,1a11.89,11.89,0,0,0-.89,1.08c-.57.73-1.09,1.49-1.62,2.23-.25.37-.5.75-.73,1.12-.12.19-.23.38-.35.56l-.35.54c-.46.72-.87,1.43-1.24,2.09-.82,1.31-1.4,2.49-1.87,3.3s-.7,1.33-.7,1.33a7,7,0,0,0,1,.25,13.34,13.34,0,0,0,2.68.21,12.35,12.35,0,0,0,3.85-.7,13.54,13.54,0,0,0,4.41-2.63,24.41,24.41,0,0,0,6.3-10.14c.3-.86.51-1.68.72-2.42a16,16,0,0,0,.46-2c.21-1.1.29-1.78.29-1.78a6.67,6.67,0,0,0-1,.13,16.06,16.06,0,0,0-2.63.74c-.53.2-1.09.46-1.68.75a15.15,15.15,0,0,0-3.75,2.41A18,18,0,0,0,222.89,159.54Z"/><path d="M214.85,180.07a40,40,0,0,0-5,3.25c-.76.6-1.54,1.17-2.26,1.74-.35.3-.7.58-1,.86l-1,.79c-1.25,1.08-2.37,2-3.11,2.64-.37.35-.7.59-.91.77l-.32.29s.32.26.91.64a14.35,14.35,0,0,0,2.62,1.26,13.07,13.07,0,0,0,4.16.71,12.64,12.64,0,0,0,2.6-.23,15.57,15.57,0,0,0,2.9-.86,21.28,21.28,0,0,0,3-1.55,28.23,28.23,0,0,0,2.74-2c.85-.75,1.65-1.56,2.42-2.35a25.16,25.16,0,0,0,2-2.43l.46-.58.4-.59c.26-.38.5-.75.73-1.1a20.22,20.22,0,0,0,1.13-1.9c.6-1.08.92-1.75.92-1.75a8.63,8.63,0,0,0-1.11-.2,16.72,16.72,0,0,0-3-.09,19.13,19.13,0,0,0-2,.23,17.32,17.32,0,0,0-2.25.48,20.82,20.82,0,0,0-2.42.81A20.31,20.31,0,0,0,214.85,180.07Z"/><path d="M177.28,83.42a35.67,35.67,0,0,0,7.8,2.09c.55.09,1.06.14,1.51.2l1.19.14a7.64,7.64,0,0,1,1.05.06s-.16-.35-.5-.94a9.39,9.39,0,0,0-.63-1,14.49,14.49,0,0,0-1-1.29,17.74,17.74,0,0,0-7-5.39c-.4-.16-.8-.31-1.2-.44s-.8-.23-1.2-.33-.79-.17-1.18-.23-.78-.1-1.16-.13-.74-.07-1.1-.07H172.8a6.7,6.7,0,0,0-1,0l-.91.13c-.57.1-1.09.21-1.54.32a11.33,11.33,0,0,0-1.16.38c-.63.22-1,.38-1,.38s.3.25.83.65c.27.19.59.42,1,.67s.78.57,1.23.86A40.16,40.16,0,0,0,177.28,83.42Z"/><path d="M200.22,196.79a28.56,28.56,0,0,0-3.2.57c-1.08.2-2.12.46-3.13.74s-2,.52-3,.81-1.88.5-2.72.77c-1.71.46-3.14.94-4.19,1.21a14,14,0,0,0-1.66.52,7.85,7.85,0,0,0,.61,1,12.83,12.83,0,0,0,2,2.35,14,14,0,0,0,1.65,1.32,10.47,10.47,0,0,0,1,.63c.36.19.73.38,1.14.56a16,16,0,0,0,2.7.87,15.73,15.73,0,0,0,3.28.32,17.28,17.28,0,0,0,3.66-.36,22.13,22.13,0,0,0,3.67-1,32.31,32.31,0,0,0,6.52-3.23c.47-.28.93-.58,1.36-.88l1.18-.88c.74-.58,1.41-1.09,1.92-1.55,1-.93,1.6-1.52,1.6-1.52a6.74,6.74,0,0,0-1.05-.59,18,18,0,0,0-3-1.1,23.61,23.61,0,0,0-4.57-.78A27.83,27.83,0,0,0,200.22,196.79Z"/><path d="M76.75,71.89A21.12,21.12,0,0,0,67,75.31a28.79,28.79,0,0,0-3.12,2.26c-.75.62-1.16,1-1.16,1A14.39,14.39,0,0,0,66,80.4a17.62,17.62,0,0,0,8.43,1.27,30.17,30.17,0,0,0,9-2.69c.61-.27,1.17-.54,1.66-.8s.95-.45,1.3-.64c.72-.4,1.13-.65,1.13-.65a14.6,14.6,0,0,0-6.09-4.31A12.77,12.77,0,0,0,76.75,71.89Z"/><path d="M55.68,92a23.66,23.66,0,0,0-9.43,6.54c-.57.63-1.09,1.25-1.55,1.81s-.81,1.08-1.12,1.51c-.61.88-.94,1.41-.94,1.41a16.42,16.42,0,0,0,4.09,1,20.22,20.22,0,0,0,4.26,0,19.14,19.14,0,0,0,5-1.16,33.61,33.61,0,0,0,8.93-5.61c1.14-1,2.12-1.86,2.78-2.51l1-1.06s-.35-.25-1-.62a15.85,15.85,0,0,0-2.64-1.23,15.49,15.49,0,0,0-4.16-.81A14.45,14.45,0,0,0,55.68,92Z"/><path d="M40.53,116.79a23.45,23.45,0,0,0-7.82,9.7,25.77,25.77,0,0,0-1,2.39c-.25.74-.47,1.42-.64,2-.33,1.12-.49,1.8-.49,1.8.43,0,.87,0,1.3,0a20.4,20.4,0,0,0,3.3-.42,22.61,22.61,0,0,0,4.42-1.36,20.38,20.38,0,0,0,4.82-2.75A36.32,36.32,0,0,0,51.94,120c.44-.64.87-1.25,1.23-1.81s.67-1.07.93-1.49c.53-.83.81-1.36.81-1.36a16.22,16.22,0,0,0-4.45-1,15.86,15.86,0,0,0-4.61.26A14.92,14.92,0,0,0,40.53,116.79Z"/><path d="M33.63,144.56c-2.83,3.64-4.22,8.71-4.54,12.76-.05.52-.1,1-.12,1.47s0,.94,0,1.36v2.26a12.14,12.14,0,0,0,.12,1.47,1.71,1.71,0,0,0,.07.54,12,12,0,0,0,1.31-.47,23.42,23.42,0,0,0,3.2-1.62,25.08,25.08,0,0,0,8-7.58,40.86,40.86,0,0,0,4.79-10.86c.22-.81.48-1.55.64-2.22s.32-1.27.43-1.76c.26-1,.37-1.58.37-1.58a10.75,10.75,0,0,0-1.39,0,19.94,19.94,0,0,0-3.53.45,16.82,16.82,0,0,0-4.65,1.78,16.11,16.11,0,0,0-2.43,1.67A16.67,16.67,0,0,0,33.63,144.56Z"/><path d="M36,173.07a16.29,16.29,0,0,0-.56,1.8c-.14.62-.26,1.24-.35,1.87a20.13,20.13,0,0,0-.27,3.8c0,.63,0,1.26.06,1.88l.06.93.12.92c.17,1.19.38,2.35.61,3.43a39.81,39.81,0,0,0,1.68,5.23c.52,1.27.88,2,.88,2a12,12,0,0,0,1.18-1,23.9,23.9,0,0,0,2.72-2.79,31.19,31.19,0,0,0,3.09-4.47,28.32,28.32,0,0,0,2.48-6,45.27,45.27,0,0,0,1.22-12.65,21.32,21.32,0,0,0-.09-2.47,19.09,19.09,0,0,1-.14-2c-.07-1.09-.16-1.74-.16-1.74s-.55.13-1.43.44a22.21,22.21,0,0,0-3.47,1.77,19.91,19.91,0,0,0-2.1,1.43,18.7,18.7,0,0,0-2.08,2A17.68,17.68,0,0,0,37.51,170,19.12,19.12,0,0,0,36,173.07Z"/><path d="M47.08,199.38a22.48,22.48,0,0,0,1.38,8A23.49,23.49,0,0,0,50.05,211c.29.57.58,1.16.9,1.7s.65,1,1,1.54a37,37,0,0,0,3.64,4.64c.48.56.93.94,1.22,1.23l.46.42c.29-.45.56-.92.81-1.4a27.93,27.93,0,0,0,1.63-3.82,34.53,34.53,0,0,0,1.44-5.66c.15-1,.3-2.15.37-3.3a34.44,34.44,0,0,0,0-3.52,50.51,50.51,0,0,0-2.92-12.9c-.08-.22-.17-.43-.24-.65l-.21-.62c-.14-.4-.29-.79-.43-1.15-.27-.73-.56-1.34-.75-1.89-.42-1.06-.73-1.67-.73-1.67a14.7,14.7,0,0,0-1.31.92,22,22,0,0,0-3,2.79,17.47,17.47,0,0,0-1.69,2.14,19.09,19.09,0,0,0-1.5,2.64,17.13,17.13,0,0,0-1.63,6.93Z"/><path d="M66.1,220.14A24.78,24.78,0,0,0,67.93,224a33.73,33.73,0,0,0,2.6,3.47c1,1,2,2.06,3.06,3a31.18,31.18,0,0,0,3.21,2.38,35.4,35.4,0,0,0,5.59,2.93c1.45.62,2.35.92,2.35.92a17.07,17.07,0,0,0,.17-1.74,33.18,33.18,0,0,0-.08-4.46c-.08-.92-.19-1.89-.36-2.92-.09-.5-.18-1-.29-1.54s-.23-1.1-.36-1.65a30,30,0,0,0-1-3.35,32.94,32.94,0,0,0-1.36-3.45,56,56,0,0,0-7.38-11.21c-.29-.36-.58-.69-.87-1s-.52-.65-.77-.94c-.5-.61-1-1.08-1.34-1.53a15.74,15.74,0,0,0-1.24-1.34,15.15,15.15,0,0,0-1,1.38,24.17,24.17,0,0,0-2.09,3.84,19.4,19.4,0,0,0-1.53,5.89A17.66,17.66,0,0,0,66.1,220.14Z"/><path d="M72.46,65.73a39.08,39.08,0,0,1-6,8.9c-1,1.2-2,2.16-2.62,2.87a9.63,9.63,0,0,1-1.08,1.08,12,12,0,0,1-1.65-3.51,13.81,13.81,0,0,1,.35-8.91c1.35-3.68,4.28-7,6.92-9.39.66-.58,1.29-1.11,1.87-1.58s1.21-.83,1.61-1.12l1.48-1a13.73,13.73,0,0,1,.72,3.81,17.84,17.84,0,0,1-.2,4A19.11,19.11,0,0,1,72.46,65.73Z"/><path d="M49.24,86.71A41.93,41.93,0,0,1,45.46,98c-.37.78-.73,1.5-1.06,2.13s-.63,1.23-.88,1.69c-.51.93-.85,1.46-.85,1.46a13.27,13.27,0,0,1-2.74-3.19,15.36,15.36,0,0,1-1.76-4,16.05,16.05,0,0,1-.46-5.65c.39-4.31,2.51-8.73,4.59-12a39.68,39.68,0,0,1,2.82-3.89c.75-.94,1.26-1.46,1.26-1.46A11.43,11.43,0,0,1,47,74a17.75,17.75,0,0,1,1.29,2.8,18.21,18.21,0,0,1,1,4.32A20.38,20.38,0,0,1,49.24,86.71Z"/><path d="M32.2,113.07a56.24,56.24,0,0,1-.53,13.09c-.13.94-.29,1.81-.41,2.59s-.22,1.48-.32,2.05c-.21,1.15-.38,1.83-.38,1.83a10.3,10.3,0,0,1-1.16-.56,15.17,15.17,0,0,1-2.76-1.86,16.26,16.26,0,0,1-3.18-3.59,17.5,17.5,0,0,1-2.3-5.91c-.93-4.8,0-10.33,1.37-14.47.32-1,.69-2,1-2.84s.65-1.6.94-2.2c.58-1.22,1-1.93,1-1.93a16.51,16.51,0,0,1,3,3.52,22.09,22.09,0,0,1,2.26,4.34A24.28,24.28,0,0,1,32.2,113.07Z"/><path d="M23.77,143.72c2.13,4.51,3.25,9.63,4.14,13.66.1.51.19,1,.28,1.47s.19.91.27,1.34c.16.84.29,1.6.38,2.22l.32,2a11.18,11.18,0,0,1-1.41-.12,17.93,17.93,0,0,1-3.53-.9,17.64,17.64,0,0,1-9.09-7.8c-2.67-4.52-3.73-10.66-3.78-15.52,0-1.23,0-2.36.08-3.39s.13-1.94.22-2.69c.2-1.51.38-2.4.38-2.4a12.32,12.32,0,0,1,1.28.59,21.84,21.84,0,0,1,3.06,2.06,27,27,0,0,1,3.81,3.83A22.47,22.47,0,0,1,22,140.66,27.18,27.18,0,0,1,23.77,143.72Z"/><path d="M25.58,175.56c.47.49.9,1,1.34,1.52s.89,1,1.3,1.57c.83,1.07,1.59,2.18,2.36,3.26.38.54.73,1.09,1.07,1.63l.51.82.51.79c.67,1,1.28,2.09,1.82,3,1.18,1.91,2,3.63,2.73,4.82a11.85,11.85,0,0,1,1,1.94,10.77,10.77,0,0,1-1.46.37,18.31,18.31,0,0,1-3.91.3,17.92,17.92,0,0,1-5.62-1,19.31,19.31,0,0,1-6.43-3.84c-4.34-3.81-7.51-9.78-9.2-14.79a33.5,33.5,0,0,1-1-3.53c-.25-1.08-.54-2-.68-2.85C9.63,168,9.5,167,9.5,167a11.09,11.09,0,0,1,1.52.2,22,22,0,0,1,3.83,1.07c.78.3,1.6.67,2.46,1.1A27.71,27.71,0,0,1,20,170.87a25.17,25.17,0,0,1,2.77,2.06A27.73,27.73,0,0,1,25.58,175.56Z"/><path d="M37.31,205.45a58.86,58.86,0,0,1,7.33,4.75c1.11.87,2.25,1.71,3.3,2.55.51.43,1,.84,1.52,1.25l1.46,1.15c1.82,1.57,3.46,2.86,4.54,3.86.55.5,1,.85,1.32,1.12l.47.41a13.7,13.7,0,0,1-1.32.94,19.55,19.55,0,0,1-3.83,1.84,19.2,19.2,0,0,1-6.06,1,18,18,0,0,1-3.81-.34A22.45,22.45,0,0,1,38,222.72a32.09,32.09,0,0,1-4.31-2.25,41.7,41.7,0,0,1-4-3c-1.24-1.1-2.41-2.27-3.53-3.43a40,40,0,0,1-2.94-3.55l-.66-.85-.59-.85c-.38-.56-.73-1.1-1.07-1.61a29.74,29.74,0,0,1-1.65-2.77c-.87-1.58-1.33-2.56-1.33-2.56a9.82,9.82,0,0,1,1.62-.29,22.91,22.91,0,0,1,4.3-.13c.89.06,1.85.16,2.88.33a28.3,28.3,0,0,1,3.29.7,29.43,29.43,0,0,1,3.54,1.19A29,29,0,0,1,37.31,205.45Z"/><path d="M92.16,64.44a51.67,51.67,0,0,1-11.39,3c-.8.13-1.55.21-2.21.3s-1.25.15-1.72.19c-1,.09-1.54.1-1.54.1s.23-.51.73-1.37A17.72,17.72,0,0,1,77,65.17c.37-.54.85-1.2,1.38-1.89a25.93,25.93,0,0,1,10.26-7.86c.57-.23,1.16-.45,1.74-.64s1.17-.34,1.76-.47L93.8,54c.57-.11,1.14-.14,1.66-.19s1.12-.1,1.65-.1h1.54a7.94,7.94,0,0,1,1.43.08c.43.08.91.13,1.33.19.84.15,1.59.3,2.25.47s1.23.39,1.7.54c.92.33,1.41.56,1.41.56s-.44.38-1.22,1c-.39.29-.86.61-1.41,1s-1.14.82-1.8,1.25A57.3,57.3,0,0,1,92.16,64.44Z"/><path d="M58.68,229.93a41.16,41.16,0,0,1,4.67.84c1.56.29,3.09.66,4.56,1.08s3,.76,4.32,1.18,2.74.73,4,1.12c2.49.67,4.59,1.38,6.12,1.77a19.47,19.47,0,0,1,2.42.76,13.23,13.23,0,0,1-.88,1.49A19,19,0,0,1,81,241.59a20.38,20.38,0,0,1-2.41,1.93q-.69.48-1.47.93c-.53.27-1.08.55-1.67.81a23.84,23.84,0,0,1-4,1.27,22,22,0,0,1-4.79.47,26.63,26.63,0,0,1-5.34-.52A33.11,33.11,0,0,1,56,245a37.51,37.51,0,0,1-5-2.16,39.38,39.38,0,0,1-4.52-2.55c-.69-.42-1.36-.85-2-1.29s-1.18-.87-1.73-1.29c-1.08-.84-2-1.59-2.8-2.26-1.48-1.36-2.34-2.22-2.34-2.22a11.56,11.56,0,0,1,1.54-.85,25.59,25.59,0,0,1,4.33-1.61,34.21,34.21,0,0,1,6.67-1.14A41.44,41.44,0,0,1,58.68,229.93Z"/><path d="M130.27,118.07a6.41,6.41,0,0,0-3,1,9.07,9.07,0,0,0-.94.69,3.27,3.27,0,0,0-.35.3,4.27,4.27,0,0,0,1,.56,5.38,5.38,0,0,0,2.54.38,9,9,0,0,0,2.74-.82,4.59,4.59,0,0,0,.5-.24l.4-.19.34-.2a4.12,4.12,0,0,0-1.86-1.3A3.55,3.55,0,0,0,130.27,118.07Z"/><path d="M123.89,124.07a7.14,7.14,0,0,0-2.85,2l-.47.54-.34.46-.28.43a5.14,5.14,0,0,0,1.23.3,7,7,0,0,0,1.29,0,5.4,5.4,0,0,0,1.53-.35,10,10,0,0,0,2.7-1.7c.35-.3.64-.56.84-.76l.32-.32-.3-.18a4.12,4.12,0,0,0-.83-.37,4.94,4.94,0,0,0-1.26-.25A4.46,4.46,0,0,0,123.89,124.07Z"/><path d="M119.31,131.6a7.21,7.21,0,0,0-2.37,2.93c-.12.26-.22.51-.31.73a5.71,5.71,0,0,0-.19.6c-.1.33-.15.54-.15.54h.39a5.59,5.59,0,0,0,1-.13,6.92,6.92,0,0,0,1.34-.41,6.12,6.12,0,0,0,1.44-.79,11.06,11.06,0,0,0,2.27-2.46c.14-.19.27-.38.38-.55l.28-.45c.16-.25.24-.41.24-.41a5,5,0,0,0-4.34.44Z"/><path d="M117.22,140a7.54,7.54,0,0,0-1.37,3.86V146l.4-.14a7.18,7.18,0,0,0,1-.5,7.46,7.46,0,0,0,2.41-2.3,12.31,12.31,0,0,0,1.44-3.28c.06-.25.14-.47.19-.67s.1-.39.13-.54.11-.47.11-.47a2.94,2.94,0,0,0-.42,0,5.5,5.5,0,0,0-1.07.14,4.76,4.76,0,0,0-1.4.53,5.4,5.4,0,0,0-.74.51A5.71,5.71,0,0,0,117.22,140Z"/><path d="M117.94,148.64a5.6,5.6,0,0,0-.17.54,3.69,3.69,0,0,1-.11.56,6.29,6.29,0,0,0-.08,1.15v.57a1.31,1.31,0,0,0,0,.28V152c.06.36.12.71.19,1a10.78,10.78,0,0,0,.51,1.58l.26.61s.14-.1.36-.29a7.22,7.22,0,0,0,.82-.84,9.69,9.69,0,0,0,.94-1.36,8.43,8.43,0,0,0,.75-1.81,14.08,14.08,0,0,0,.37-3.83v-1.86a1.07,1.07,0,0,0-.43.13,7.18,7.18,0,0,0-1,.5,5.5,5.5,0,0,0-.64.43,7,7,0,0,0-.63.59,6.1,6.1,0,0,0-.58.76A5.22,5.22,0,0,0,117.94,148.64Z"/><path d="M121.29,156.58a6.62,6.62,0,0,0,.42,2.41,7.29,7.29,0,0,0,.48,1.11c.09.17.17.35.27.52l.3.46a9.29,9.29,0,0,0,1.1,1.4,3.32,3.32,0,0,0,.37.38l.14.12s.1-.15.24-.42a7,7,0,0,0,.49-1.16,9.14,9.14,0,0,0,.44-1.71c0-.31.09-.65.11-1a9.55,9.55,0,0,0,0-1.07,15.42,15.42,0,0,0-.88-3.9,1.59,1.59,0,0,1-.07-.2,1.46,1.46,0,0,1-.07-.19,3.42,3.42,0,0,0-.13-.34c-.08-.22-.17-.41-.22-.58a4.13,4.13,0,0,0-.22-.5,3.6,3.6,0,0,0-.4.28,6.57,6.57,0,0,0-.91.84,4.56,4.56,0,0,0-.51.65,4.88,4.88,0,0,0-.46.8,5.89,5.89,0,0,0-.34,1A6.77,6.77,0,0,0,121.29,156.58Z"/><path d="M127,162.86a7.38,7.38,0,0,0,.56,1.17,10.2,10.2,0,0,0,.78,1.05q.45.48.93.9a10.13,10.13,0,0,0,1,.72,11.83,11.83,0,0,0,1.69.89l.71.28v-.53a10.14,10.14,0,0,0,0-1.35,5.72,5.72,0,0,0-.11-.88.9.9,0,0,0-.09-.47,1.72,1.72,0,0,1-.11-.5,8.83,8.83,0,0,0-.3-1,7.47,7.47,0,0,0-.41-1,17.73,17.73,0,0,0-2.23-3.39l-.27-.31-.23-.28c-.15-.19-.3-.33-.41-.47s-.24-.27-.37-.4a4.56,4.56,0,0,0-.31.42,8.68,8.68,0,0,0-.63,1.16,5.77,5.77,0,0,0-.46,1.78A5.34,5.34,0,0,0,127,162.86Z"/><path d="M129,116.16a11.69,11.69,0,0,1-1.82,2.69c-.3.36-.59.65-.79.86L126,120a3.45,3.45,0,0,1-.49-1,4.26,4.26,0,0,1,.11-2.71,7.63,7.63,0,0,1,2.1-2.83q.3-.27.57-.48c.17-.14.34-.25.48-.35l.44-.29a4.11,4.11,0,0,1,.22,1.15,5.75,5.75,0,0,1-.5,2.68Z"/><path d="M121.94,122.5a12.48,12.48,0,0,1-1.15,3.41c-.11.24-.22.45-.32.64s-.19.38-.27.52l-.25.44a3.6,3.6,0,0,1-.82-1,4.72,4.72,0,0,1-.67-2.93,8.52,8.52,0,0,1,1.38-3.63,12.25,12.25,0,0,1,.86-1.18c.12-.15.25-.3.38-.44s.08.11.19.3a4.36,4.36,0,0,1,.39.85,4.91,4.91,0,0,1,.31,1.31A6.12,6.12,0,0,1,121.94,122.5Z"/><path d="M116.79,130.48a17.28,17.28,0,0,1-.16,4,4.49,4.49,0,0,1-.13.79c0,.24-.06.44-.09.62-.07.35-.12.55-.12.55l-.35-.16a4.7,4.7,0,0,1-.83-.57,4.56,4.56,0,0,1-1-1.1,5.25,5.25,0,0,1-.7-1.78,9.45,9.45,0,0,1,.42-4.38c.1-.31.21-.6.31-.86s.2-.48.28-.67c.18-.36.3-.58.3-.58a4.7,4.7,0,0,1,.92,1.07,6.56,6.56,0,0,1,.69,1.31A7.74,7.74,0,0,1,116.79,130.48Z"/><path d="M114.24,139.75a19.8,19.8,0,0,1,1.22,4.13l.09.44a.74.74,0,0,0,.08.41,2.24,2.24,0,0,1,.11.67c.06.38.1.61.1.61a3.09,3.09,0,0,1-.43,0,4.85,4.85,0,0,1-1.06-.27,5.26,5.26,0,0,1-2.75-2.36,10,10,0,0,1-1.15-4.7v-1a3.51,3.51,0,0,1,.06-.82c.06-.45.12-.72.12-.72a2.64,2.64,0,0,1,.38.18,6.54,6.54,0,0,1,.93.62,7.61,7.61,0,0,1,1.21,1.13,7.48,7.48,0,0,1,.56.79A6.14,6.14,0,0,1,114.24,139.75Z"/><path d="M114.79,149.38c.14.15.27.3.4.46a5.71,5.71,0,0,1,.39.47c.26.33.49.66.72,1l.32.49.16.25.15.24c.21.32.39.63.55.92.36.58.62,1.1.83,1.46a4.73,4.73,0,0,1,.3.59l-.44.11a5.81,5.81,0,0,1-1.18.09,5.49,5.49,0,0,1-1.7-.31,5.74,5.74,0,0,1-2-1.16,10.8,10.8,0,0,1-2.78-4.48c-.13-.38-.23-.74-.32-1.07a8.46,8.46,0,0,1-.2-.86c-.09-.49-.13-.78-.13-.78a3.62,3.62,0,0,1,.46.06,6.64,6.64,0,0,1,1.16.32c.23.09.48.2.74.33a8.28,8.28,0,0,1,.82.47,5.69,5.69,0,0,1,.84.62A9.61,9.61,0,0,1,114.79,149.38Z"/><path d="M118.34,158.42a19,19,0,0,1,2.21,1.44c.34.26.68.51,1,.77l.46.38.44.34c.55.48,1,.87,1.38,1.17.16.15.3.26.4.34l.14.12c-.13.1-.26.2-.4.29a7.23,7.23,0,0,1-1.16.55,5.48,5.48,0,0,1-1.84.32,6.3,6.3,0,0,1-1.15-.1,8.18,8.18,0,0,1-1.28-.38,10.71,10.71,0,0,1-1.3-.68,13.19,13.19,0,0,1-1.21-.91c-.38-.33-.73-.69-1.07-1a8.15,8.15,0,0,1-.89-1.07l-.2-.26-.18-.26-.32-.48c-.2-.32-.38-.6-.5-.84-.26-.48-.4-.78-.4-.78a3.86,3.86,0,0,1,.49-.09,7.06,7.06,0,0,1,1.3,0,8.58,8.58,0,0,1,.87.1,8.45,8.45,0,0,1,1,.21,10.34,10.34,0,0,1,1.07.36A9.36,9.36,0,0,1,118.34,158.42Z"/><path d="M134.93,115.77a16.42,16.42,0,0,1-3.45.92l-.67.09-.52.06h-.46s.07-.16.22-.42.16-.29.27-.46.26-.37.42-.57a7.91,7.91,0,0,1,3.11-2.32l.52-.2.53-.14.52-.11.51-.05h1.39l.4.06.69.14.51.17c.28.1.43.17.43.17l-.37.28-.43.3-.54.38A18.12,18.12,0,0,1,134.93,115.77Z"/><path d="M124.8,165.83a11.25,11.25,0,0,1,1.41.25c.47.09.94.2,1.38.32s.89.23,1.31.36.83.22,1.2.34c.75.2,1.39.42,1.85.54a6.44,6.44,0,0,1,.73.23,3.35,3.35,0,0,1-.27.45,6.48,6.48,0,0,1-1.6,1.59l-.45.28-.5.24a8.4,8.4,0,0,1-1.2.39,7.83,7.83,0,0,1-1.45.14,7.92,7.92,0,0,1-1.61-.16,10.22,10.22,0,0,1-1.62-.44,10.74,10.74,0,0,1-1.52-.66,10.11,10.11,0,0,1-1.36-.77c-.21-.12-.41-.26-.6-.39l-.52-.39c-.33-.25-.62-.48-.85-.68-.45-.41-.71-.67-.71-.67a4.31,4.31,0,0,1,.47-.26,7.65,7.65,0,0,1,1.31-.49,10.33,10.33,0,0,1,2-.34A12.56,12.56,0,0,1,124.8,165.83Z"/><path d="M112.11,88.52a14.43,14.43,0,0,0-6.65,2.35,20.36,20.36,0,0,0-2.14,1.54c-.51.43-.79.69-.79.69a10,10,0,0,0,2.28,1.26,12.13,12.13,0,0,0,5.74.86,21.13,21.13,0,0,0,6.22-1.84c.41-.19.8-.37,1.13-.55s.65-.31.89-.44l.78-.44a9.78,9.78,0,0,0-4.21-3A8.75,8.75,0,0,0,112.11,88.52Z"/><path d="M97.68,102.29a16.18,16.18,0,0,0-6.46,4.48c-.39.44-.75.86-1.06,1.24s-.56.74-.77,1c-.42.6-.64,1-.64,1a10.81,10.81,0,0,0,2.8.68,14.25,14.25,0,0,0,2.92,0,13.22,13.22,0,0,0,3.45-.8,22.72,22.72,0,0,0,6.12-3.82c.79-.67,1.45-1.28,1.91-1.72l.71-.73s-.24-.17-.68-.42a10.9,10.9,0,0,0-1.88-.84,10.58,10.58,0,0,0-2.84-.55A9.66,9.66,0,0,0,97.68,102.29Z"/><path d="M87.3,119.28a16.1,16.1,0,0,0-5.36,6.64c-.26.59-.51,1.14-.69,1.64s-.32,1-.44,1.36c-.23.76-.34,1.23-.34,1.23h.89a15.52,15.52,0,0,0,2.26-.29,15.79,15.79,0,0,0,3-.93A14.49,14.49,0,0,0,90,127.07a24.74,24.74,0,0,0,5.15-5.56c.31-.45.6-.87.85-1.25s.46-.73.63-1c.37-.57.56-.93.56-.93a11.39,11.39,0,0,0-3-.66,11.16,11.16,0,0,0-3.16.18A10.36,10.36,0,0,0,87.3,119.28Z"/><path d="M82.58,138.31a17.07,17.07,0,0,0-3.12,8.76c0,.35-.07.68-.08,1s0,.65,0,.93v1.55a8.72,8.72,0,0,0,.08,1,1.83,1.83,0,0,1,0,.37,8.7,8.7,0,0,0,.9-.32,16.13,16.13,0,0,0,2.19-1.12A17.2,17.2,0,0,0,88,145.3a27.81,27.81,0,0,0,3.26-7.45c.15-.55.33-1.06.44-1.51l.29-1.21c.18-.68.26-1.08.26-1.08h-1a13.94,13.94,0,0,0-2.41.31A11.67,11.67,0,0,0,84,136.72,11.43,11.43,0,0,0,82.58,138.31Z"/><path d="M84.2,157.86a12.57,12.57,0,0,0-.39,1.23c-.09.42-.17.85-.23,1.28a13.34,13.34,0,0,0-.19,2.6v1.93c0,.21.06.42.08.63.12.82.27,1.61.42,2.35A26.64,26.64,0,0,0,85,171.46c.36.87.61,1.37.61,1.37a8.53,8.53,0,0,0,.81-.65,16.78,16.78,0,0,0,1.86-1.91,22.34,22.34,0,0,0,2.12-3.07,19,19,0,0,0,1.69-4.1,30.89,30.89,0,0,0,.84-8.67,14.9,14.9,0,0,0-.06-1.69c-.06-.5-.09-1-.1-1.34,0-.75-.11-1.19-.11-1.19s-.37.09-1,.3A15.65,15.65,0,0,0,88,152.64,13.72,13.72,0,0,0,86.59,154a13.94,13.94,0,0,0-1.33,1.73A13.51,13.51,0,0,0,84.2,157.86Z"/><path d="M91.79,175.86a15.32,15.32,0,0,0,.94,5.45,16.53,16.53,0,0,0,1.09,2.52c.2.39.4.79.62,1.16s.45.71.67,1a24,24,0,0,0,2.5,3.18,11.36,11.36,0,0,0,.85.85l.32.29a9.72,9.72,0,0,0,.55-1,18.5,18.5,0,0,0,1.13-2.58,22.56,22.56,0,0,0,1-3.88c.11-.7.21-1.47.26-2.26s0-1.57,0-2.41a34.87,34.87,0,0,0-2-8.84c-.06-.15-.12-.29-.17-.44s-.1-.28-.14-.43l-.29-.79c-.19-.5-.39-.92-.52-1.29-.29-.73-.5-1.14-.5-1.14a9,9,0,0,0-.9.62,15.57,15.57,0,0,0-2.06,1.92,12.42,12.42,0,0,0-2.23,3.23,12.24,12.24,0,0,0-.78,2.2A12.6,12.6,0,0,0,91.79,175.86Z"/><path d="M104.82,190.07a16,16,0,0,0,1.25,2.65,26.85,26.85,0,0,0,1.78,2.35c.67.7,1.37,1.37,2.1,2s1.48,1.14,2.2,1.63a24,24,0,0,0,3.83,2c1,.42,1.61.63,1.61.63s.07-.43.12-1.19a22.33,22.33,0,0,0-.06-3.06c-.06-.63-.13-1.29-.25-2-.06-.35-.12-.7-.2-1.06s-.15-.76-.24-1.13a22.52,22.52,0,0,0-.68-2.3,25.09,25.09,0,0,0-1-2.35,38.74,38.74,0,0,0-5-7.68l-.59-.7c-.19-.23-.36-.44-.54-.64a12.34,12.34,0,0,0-.92-1,10.29,10.29,0,0,0-.84-.91,9.07,9.07,0,0,0-.69.94,16.36,16.36,0,0,0-1.44,2.63,13.74,13.74,0,0,0-1,4A11.88,11.88,0,0,0,104.82,190.07Z"/><path d="M109.14,84.3A26.49,26.49,0,0,1,105,90.4c-.69.82-1.34,1.48-1.79,2a2.72,2.72,0,0,1-.77.67,8.64,8.64,0,0,1-1.09-2.37,9.44,9.44,0,0,1,.25-6.14,17.41,17.41,0,0,1,4.74-6.43c.45-.4.89-.76,1.29-1.08s.77-.57,1.08-.78l1-.67a9.27,9.27,0,0,1,.49,2.61,12.06,12.06,0,0,1-.14,2.75A13.4,13.4,0,0,1,109.14,84.3Z"/><path d="M93.27,98.68a28.77,28.77,0,0,1-2.61,7.71c-.25.54-.5,1-.73,1.46l-.6,1.16c-.35.64-.58,1-.58,1a9.28,9.28,0,0,1-1.86-2.19,10.68,10.68,0,0,1-1.2-2.75,10.49,10.49,0,0,1-.32-3.86A19.49,19.49,0,0,1,88.51,93a25.68,25.68,0,0,1,1.95-2.7c.51-.64.86-1,.86-1a6.07,6.07,0,0,1,.44.68,12,12,0,0,1,.89,1.92,12.93,12.93,0,0,1,.69,3A14.07,14.07,0,0,1,93.27,98.68Z"/><path d="M81.59,116.75a38.75,38.75,0,0,1-.36,9c-.09.65-.2,1.24-.28,1.78s-.15,1-.22,1.4c-.14.79-.26,1.25-.26,1.25s-.3-.12-.79-.37a11.27,11.27,0,0,1-4.1-3.77A12.28,12.28,0,0,1,74,122a21.12,21.12,0,0,1,1-9.91c.21-.72.47-1.37.7-2a15.26,15.26,0,0,1,.64-1.51c.4-.83.66-1.32.66-1.32a11.23,11.23,0,0,1,2.1,2.41,14.74,14.74,0,0,1,1.56,3A16.48,16.48,0,0,1,81.59,116.75Z"/><path d="M75.82,137.73a44.18,44.18,0,0,1,2.84,9.34c.06.35.13.69.19,1s.13.63.18.92c.11.58.2,1.1.26,1.52.14.86.22,1.38.22,1.38a8.42,8.42,0,0,1-1-.08,13.43,13.43,0,0,1-2.42-.62,12.08,12.08,0,0,1-6.23-5.34,22.67,22.67,0,0,1-2.59-10.64c0-.84,0-1.62.06-2.32s.09-1.33.15-1.85c.13-1,.26-1.64.26-1.64a8.59,8.59,0,0,1,.87.4,14.81,14.81,0,0,1,2.1,1.41,18.25,18.25,0,0,1,2.61,2.59,15.88,15.88,0,0,1,1.26,1.78A17.63,17.63,0,0,1,75.82,137.73Z"/><path d="M77.06,159.54c.32.34.61.69.92,1a11.89,11.89,0,0,1,.89,1.08c.57.73,1.09,1.49,1.61,2.23.26.37.5.75.74,1.12.12.19.23.38.35.56l.35.54c.46.72.87,1.43,1.24,2.09.81,1.31,1.4,2.49,1.87,3.3s.7,1.33.7,1.33a7,7,0,0,1-1,.25,13.34,13.34,0,0,1-2.68.21,12.35,12.35,0,0,1-3.85-.7,13.54,13.54,0,0,1-4.41-2.63,24.38,24.38,0,0,1-6.33-10.1c-.3-.86-.52-1.68-.72-2.42a17.94,17.94,0,0,1-.46-2c-.21-1.1-.29-1.78-.29-1.78a6.67,6.67,0,0,1,1,.13,16,16,0,0,1,2.62.74,17,17,0,0,1,1.69.75,19.45,19.45,0,0,1,1.85,1,18.68,18.68,0,0,1,1.9,1.41A18,18,0,0,1,77.06,159.54Z"/><path d="M85.1,180.07a41.94,41.94,0,0,1,5,3.25c.76.6,1.54,1.17,2.25,1.74l1,.86,1,.79c1.25,1.08,2.37,2,3.11,2.64.37.35.7.59.91.77l.32.29s-.32.26-.91.64a14.35,14.35,0,0,1-2.62,1.26A13.07,13.07,0,0,1,91,193a12.64,12.64,0,0,1-2.6-.23,15.44,15.44,0,0,1-2.91-.86,21.81,21.81,0,0,1-2.95-1.55,28.23,28.23,0,0,1-2.74-2c-.85-.75-1.66-1.56-2.42-2.35a26.73,26.73,0,0,1-2-2.43l-.45-.58-.4-.59c-.26-.38-.5-.75-.73-1.1-.41-.61-.79-1.25-1.14-1.9-.59-1.08-.91-1.75-.91-1.75a8.63,8.63,0,0,1,1.11-.2,16.72,16.72,0,0,1,3-.09,22.39,22.39,0,0,1,4.23.71,20.82,20.82,0,0,1,2.42.81A22.24,22.24,0,0,1,85.1,180.07Z"/><path d="M122.67,83.42a35.67,35.67,0,0,1-7.8,2.09c-.55.09-1.06.14-1.51.2l-1.19.14a6.42,6.42,0,0,0-1,.06s.16-.35.5-.94a9.39,9.39,0,0,1,.63-1c.25-.35.58-.82,1-1.29a17.74,17.74,0,0,1,7-5.39c.4-.16.8-.31,1.2-.44s.8-.23,1.2-.33.79-.17,1.18-.23.78-.1,1.15-.13.75-.07,1.11-.07h1a6.63,6.63,0,0,1,1,0l.91.13c.57.1,1.09.21,1.54.32s.84.27,1.16.38c.63.22,1,.38,1,.38s-.3.25-.83.65l-1,.67c-.37.27-.78.57-1.24.86A39.35,39.35,0,0,1,122.67,83.42Z"/><path d="M99.73,196.79a28.56,28.56,0,0,1,3.2.57c1.07.2,2.12.46,3.13.74s2,.52,3,.81,1.87.5,2.71.77c1.72.46,3.15.94,4.2,1.21a14,14,0,0,1,1.66.52,7.85,7.85,0,0,1-.61,1,12.83,12.83,0,0,1-2,2.35,14,14,0,0,1-1.65,1.32,10.47,10.47,0,0,1-1,.63c-.36.19-.73.38-1.14.56a14.39,14.39,0,0,1-6,1.19,17.18,17.18,0,0,1-3.65-.36,22.13,22.13,0,0,1-3.67-1,25,25,0,0,1-3.45-1.46,25.84,25.84,0,0,1-3.07-1.75c-.48-.28-.93-.58-1.36-.88s-.81-.6-1.18-.88c-.74-.58-1.41-1.09-1.92-1.55-1-.93-1.6-1.52-1.6-1.52a7.72,7.72,0,0,1,1-.59,18,18,0,0,1,3-1.1,23.48,23.48,0,0,1,4.57-.78A27.74,27.74,0,0,1,99.73,196.79Z"/><path d="M144.46,187.22V152.4A10.57,10.57,0,0,1,141,149a8.92,8.92,0,0,1-1.31-4.85A9.62,9.62,0,1,1,154,152.4v34.82a4.79,4.79,0,0,1-9.57.44A3.23,3.23,0,0,1,144.46,187.22Z"/></g></g></svg>