<svg version="1.2" xmlns="http://www.w3.org/2000/svg" viewBox="0 0 3000 3000" width="3000" height="3000">
	<title>beamly-app-icon</title>
	<style>
		.s0 { fill: #2f58fe } 
		.s1 { fill: #ffffff } 
	</style>
	<path fill-rule="evenodd" class="s0" d="m1500 3000c-829.5 0-1500-670.5-1500-1500 0-829.5 670.5-1500 1500-1500 829.5 0 1500 670.5 1500 1500 0 829.5-670.5 1500-1500 1500z"/>
	<g>
		<path class="s1" d="m1723.1 1343.5c9.9 13.8 18.3 28.5 25.2 43.2l911.7-421.8c27.3-12.6 38.4-45.3 24.6-71.7-41.7-79.5-91.2-154.8-147.6-223.8-18.6-23.1-53.4-26.1-75.9-6.6l-756 658.2q9.45 10.8 18 22.5z"/>
		<path class="s1" d="m2171.7 355.4c-77.1-44.4-159.3-81.9-245.7-110.4-28.2-9.3-59.1 6.6-67.5 35.1l-281.4 958.8c25.2 7.2 49.5 18 71.7 32.1l540.9-842.1c16.2-24.9 7.8-58.2-18-73.2z"/>
		<path class="s1" d="m2763.6 1310.9l-994.5 152.1c4.2 26.1 4.2 52.5 0.9 78.3l997.5 130.5c29.7 3.6 56.7-17.4 59.4-47.1 3.6-39.3 5.7-79.2 5.7-119.7 0-49.8-3-99.3-8.4-147.9-3.3-29.4-30.9-50.7-60.6-45.9z"/>
		<path class="s1" d="m1139.1 280.1l281.7 958.5c25.5-7.5 51.9-11.1 78.3-11.1v-998.1c-0.3-29.7-25.2-53.7-55.2-52.5-91.5 3.6-180.9 16.5-266.7 37.8-29.4 6.9-46.5 36.9-38.1 65.4z"/>
		<path class="s1" d="m2670.7 2012.9l-921-402c-10.5 23.7-24.3 46.2-41.7 66.6l770.7 641.7c23.1 18.9 57.3 15.3 75.6-8.1 54.9-70.5 102.6-146.4 142.5-227.1 13.2-26.7 1.2-59.1-26.1-71.1z"/>
	</g>
</svg>