<svg version="1.2" xmlns="http://www.w3.org/2000/svg" viewBox="0 0 400 400" width="400" height="400">
	<title>castamatic-svg</title>
	<style>
		.s0 { fill: none } 
		.s1 { fill: #fc0025 } 
		.s2 { fill: #ffffff } 
	</style>
	<path id="Layer" class="s0" d="m0 0h400v400h-400z"/>
	<path id="Layer 1" class="s1" d="m0 6c0-3.3 2.7-6 6-6h388c3.3 0 6 2.7 6 6v388c0 3.3-2.7 6-6 6h-388c-3.3 0-6-2.7-6-6z"/>
	<path id="Layer" class="s2" d="m125.1 365.8c-2.6-0.4-7-1.7-9.8-2.7-4-1.5-7-3.7-12.8-9.3-4.2-4-9.9-10.7-12.8-15-2.8-4.2-6.7-11.3-8.5-15.8-1.9-4.4-4.8-13-6.5-19.1-1.6-6-4-17-5.2-24.3-1.3-7.3-3-20.4-3.9-29.1-1.2-11.8-1.6-24.2-1.6-49.6 0-20.3 0.5-38.9 1.1-46.8 0.7-7.2 2-18.6 2.9-25.3 0.9-6.7 2.7-16.8 4-22.4 1.3-5.6 3.7-14.4 5.4-19.5 1.7-5.1 4.6-12.2 6.4-15.9 1.9-3.6 4.6-8.4 6.1-10.6 1.5-2.3 6.2-7.7 10.5-12.1 4.4-4.6 9.6-8.9 12.1-10.2 2.4-1.2 7.1-2.8 10.4-3.5 3.2-0.7 9.5-1.3 13.8-1.3 4.3 0 10.9 0.5 14.8 1 3.9 0.5 11.9 2.1 17.9 3.5 5.9 1.4 15.7 4.2 21.6 6.1 6 2 16.6 5.9 23.6 8.7 7.1 2.8 19.3 8.1 27.1 11.7 7.9 3.7 21 10.2 29.1 14.6 8.2 4.3 21.9 12.1 30.6 17.3 8.6 5.2 19.8 12.2 24.8 15.6l9.2 6.1-27.7 28.1c-15.2 15.5-28 28-28.5 27.8-0.4-0.2-6.3-3.8-12.9-7.9-6.7-4.2-18.7-11.2-26.6-15.7-7.9-4.4-17.9-9.8-22.2-11.9-4.2-2.1-11.6-5.6-16.5-7.7-4.8-2-12-4.5-16-5.4-3.9-1-9.9-2-13.3-2.3-3.9-0.4-7.9-0.2-11 0.6-3.9 0.9-5.8 2.1-9.8 6.2-3.1 3-6.2 7.3-7.9 11-1.6 3.3-3.7 9.3-4.6 13.5-1 4.1-2.3 11.2-2.9 15.7-0.7 4.6-1.2 17.2-1.2 29.2 0 12.2 0.5 25.1 1.2 30.2 0.6 4.9 1.9 12 2.9 15.8 0.9 3.7 3.1 9.6 4.7 13.1 1.7 3.5 4.8 8.3 7 10.7 2.1 2.4 5.5 5.2 7.5 6.1 2.7 1.2 5.9 1.6 11.5 1.6 5.4 0 10.4-0.6 16.6-2.2 4.8-1.3 11.8-3.6 15.5-5.1 3.7-1.5 12.2-5.6 19-9.1 6.7-3.5 16.9-9 22.6-12.2 5.7-3.2 16.2-9.4 23.2-13.8 7-4.4 13.1-8 13.5-8 0.4 0 13.3 12.5 28.6 27.9l27.9 27.8-11.7 7.6c-6.4 4.2-17.1 10.8-23.8 14.8-6.7 4-16.6 9.7-22.1 12.7-5.4 3-16.1 8.5-23.7 12.3-7.6 3.8-21 10-29.7 13.7-8.7 3.8-23 9.2-31.7 12.1-8.7 2.9-20.5 6.3-26.2 7.5-5.7 1.3-14 2.7-18.4 3.2-4.5 0.5-10.6 0.9-13.6 0.9-2.9-0.1-7.5-0.5-10-0.9z"/>
</svg>